<?xml version="1.0" encoding="UTF-8"?>
<!DOCTYPE svg PUBLIC "-//W3C//DTD SVG 1.1//EN" "http://www.w3.org/Graphics/SVG/1.1/DTD/svg11.dtd">
<!-- Creator: CorelDRAW 2018 (64-Bit) -->
<svg xmlns="http://www.w3.org/2000/svg" xml:space="preserve" width="25.4mm" height="6.7176mm" version="1.1" style="shape-rendering:geometricPrecision; text-rendering:geometricPrecision; image-rendering:optimizeQuality; fill-rule:evenodd; clip-rule:evenodd"
viewBox="0 0 907.05 239.89"
 xmlns:xlink="http://www.w3.org/1999/xlink">
 <defs>
  <style type="text/css">
   <![CDATA[
    .fil0 {fill:#2B2A29}
   ]]>
  </style>
 </defs>
 <g id="Слой_x0020_1">
  <metadata id="CorelCorpID_0Corel-Layer"/>
  <path class="fil0" d="M92.85 239.89c-2.71,-4.26 -4.61,-5.41 -7.57,-10.3 -2.29,-3.79 -4.9,-7.78 -7.2,-12.9 -15.41,-34.2 -1.15,-58.83 34.2,-72.64 32.42,-12.66 74.55,-40.83 87.38,-70.42 -13.76,6.74 -18.16,17.08 -54.73,19.34 -31.4,1.94 -36.96,-14.46 -56.49,11.45 -11.03,14.63 -21.32,26.75 -26.15,49.88 -6.42,30.71 4.6,67.1 30.56,85.59zm184.55 -83.86c-3.59,0 -7.15,-0.99 -10.66,-2.97 -3.52,-1.98 -6.32,-5.85 -8.42,-11.62l-2.81 -7.29 -31.43 0 -8.98 21.32 -5.05 0 31.43 -74.07 3.37 0 24.69 60.04c1.87,4.34 3.63,7.32 5.27,8.92 1.65,1.61 4,2.56 7.07,2.86l0 2.24c-1.35,0.37 -2.84,0.56 -4.49,0.56zm-24.13 -26.38l-13.47 -32.55 -14.03 32.55 27.5 0zm119.98 30.86c-5.39,0 -9.58,-0.82 -12.57,-2.47 -2.99,-1.65 -5.11,-4.21 -6.34,-7.69 -1.24,-3.48 -1.85,-8.14 -1.85,-13.97l0 -43.21 -28.06 62.29 -2.25 0 -29.18 -63.41 0 63.41 -4.49 0 0 -74.07 10.66 0 26.94 58.36 26.38 -58.36 10.1 0 0 54.99c0,6.96 0.88,12.35 2.64,16.16 1.76,3.82 4.43,5.72 8.02,5.72l0 2.24zm71.38 -4.49c-3.59,0 -7.15,-0.99 -10.66,-2.97 -3.52,-1.98 -6.32,-5.85 -8.42,-11.62l-2.81 -7.29 -31.43 0 -8.98 21.32 -5.05 0 31.43 -74.07 3.36 0 24.69 60.04c1.87,4.34 3.63,7.32 5.27,8.92 1.65,1.61 4,2.56 7.07,2.86l0 2.24c-1.35,0.37 -2.84,0.56 -4.49,0.56zm-24.13 -26.38l-13.47 -32.55 -14.03 32.55 27.5 0zm42.42 -33.11l0 58.92 -4.49 0 0 -60.61c0,-3.59 -0.77,-6.36 -2.3,-8.31 -1.54,-1.94 -4.14,-2.92 -7.8,-2.92l-1.12 0 0 -2.24 7.3 0c3.44,0 6.36,0.56 8.75,1.68 2.4,1.12 4.53,2.81 6.4,5.05l39.28 48.82 0 -55.55 4.49 0 0 75.2 -2.24 0 -48.26 -60.04zm129.19 59.48c-3.59,0 -7.15,-0.99 -10.66,-2.97 -3.52,-1.98 -6.32,-5.85 -8.42,-11.62l-2.8 -7.29 -31.43 0 -8.98 21.32 -5.05 0 31.43 -74.07 3.37 0 24.69 60.04c1.87,4.34 3.63,7.32 5.28,8.92 1.65,1.61 4,2.56 7.07,2.86l0 2.24c-1.35,0.37 -2.85,0.56 -4.49,0.56zm-24.13 -26.38l-13.47 -32.55 -14.03 32.55 27.5 0zm47.48 -43.77l-10.1 0c-9.35,0 -14.03,4.3 -14.03,12.91l-2.25 0 0 -8.42c0,-5.99 3.18,-8.98 9.54,-8.98l52.19 0 0 4.49 -25.25 0 0 69.59 -10.1 0 0 -69.59zm76.66 8.98c0,-3.81 -0.52,-6.64 -1.57,-8.47 -1.05,-1.83 -3.14,-2.75 -6.29,-2.75l-2.24 0 0 -2.24 44.78 0c6.36,0 9.54,2.99 9.54,8.98l0 8.42 -2.25 0c0,-8.6 -4.68,-12.91 -14.03,-12.91l-17.84 0 0 29.74 25.37 0 0 4.49 -25.37 0 0 35.35 -10.1 0 0 -60.61zm67.34 60.61c-2.77,0 -4.85,-0.35 -6.23,-1.06 -1.39,-0.71 -2.38,-2 -2.97,-3.87 -0.6,-1.87 -0.9,-4.71 -0.9,-8.53l0 -60.61 10.1 0 0 60.61c0,3.81 0.52,6.64 1.57,8.47 1.05,1.83 3.14,2.75 6.29,2.75l2.25 0 0 2.24 -10.1 0zm43.55 1.91c-4.12,0 -8.16,-0.56 -12.12,-1.68 -3.96,-1.12 -7.2,-2.73 -9.71,-4.82 -2.51,-2.1 -3.76,-4.49 -3.76,-7.18l0 -12.01 2.02 0c1.27,7.48 3.74,12.89 7.41,16.22 3.67,3.33 8.72,4.99 15.15,4.99 4.04,0 7.5,-1.01 10.38,-3.03 2.88,-2.02 4.32,-4.83 4.32,-8.42 0,-3.14 -0.97,-5.87 -2.92,-8.19 -1.95,-2.32 -5.09,-4.75 -9.43,-7.3l-13.81 -8.19c-4.79,-2.84 -8.17,-5.72 -10.16,-8.64 -1.99,-2.92 -2.97,-6.47 -2.97,-10.66 0,-5.76 2,-10.38 6,-13.86 4,-3.48 9.26,-5.22 15.77,-5.22 3.82,0 7.6,0.54 11.34,1.63 3.74,1.09 6.82,2.66 9.26,4.71 2.43,2.06 3.65,4.43 3.65,7.13l0 12.01 -2.02 0c-1.27,-7.48 -3.69,-12.85 -7.24,-16.11 -3.55,-3.25 -8.55,-4.88 -14.98,-4.88 -3.44,0 -6.47,1.05 -9.09,3.14 -2.62,2.1 -3.93,4.83 -3.93,8.19 0,3.07 0.95,5.61 2.86,7.63 1.91,2.02 5.11,4.38 9.6,7.07l13.81 8.19c5.09,3.07 8.68,5.91 10.77,8.53 2.1,2.62 3.14,5.95 3.14,9.99 0,6.29 -2.1,11.32 -6.29,15.09 -4.19,3.78 -9.88,5.67 -17.06,5.67zm40.07 -62.51c0,-3.81 -0.52,-6.64 -1.57,-8.47 -1.05,-1.83 -3.14,-2.75 -6.29,-2.75l-2.25 0 0 -2.24 10.1 0c2.77,0 4.85,0.35 6.23,1.06 1.39,0.71 2.38,2 2.97,3.87 0.6,1.87 0.9,4.71 0.9,8.53l0 20.21 33.67 0 0 -33.67 10.1 0 0 60.61c0,3.81 0.52,6.64 1.57,8.47 1.05,1.83 3.14,2.75 6.29,2.75l2.25 0 0 2.24 -10.1 0c-2.77,0 -4.84,-0.35 -6.23,-1.06 -1.39,-0.71 -2.37,-2 -2.97,-3.87 -0.6,-1.87 -0.9,-4.71 -0.9,-8.53l0 -22.45 -33.67 0 0 35.91 -10.1 0 0 -60.61zm-787.85 90.23c-1.04,-38.1 5.96,-50.08 18.93,-78.22 -13.74,1.48 -14.21,2.85 -16.73,8.29 -8.18,17.68 -11.14,60.08 -2.2,69.93zm17.07 -106.2c23.97,4.22 32.34,-18.42 39.21,-31.76 3.22,-6.26 6.44,-9.21 8.76,-14.97 -12.75,5.15 -41,34.76 -47.97,46.73zm57.53 125.07c24.46,-0.79 22.34,-46.56 24.28,-58.11 2.07,-12.3 5.2,-13.59 7.9,-22.6 -28.19,9.15 -19.7,58.66 -32.18,80.71zm-129.82 -82.54c48.01,-27.65 96.49,-7.68 96.27,-42.06 -19.56,9.1 -40.71,1.43 -60.48,8.16 -17.71,6.02 -29.53,19.02 -35.79,33.9zm109.95 -45.43c19.33,10.48 60.82,6.78 77.43,-4.65 21.09,-14.51 32.46,-54.95 28.67,-64.72 -5.87,-15.13 -52.53,-1.22 -70.9,10.9 -11.51,7.59 -38.51,35.3 -35.2,58.46z"/>
 </g>
</svg>
